<svg id="Layer_1" data-name="Layer 1" xmlns="http://www.w3.org/2000/svg" viewBox="0 0 144 144"><defs><style>.cls-1{fill:#327c00;}.cls-2{font-size:36px;fill:#fff;font-family:Futura-Medium, Futura;}</style></defs><title>ecocraft</title><path class="cls-1" d="M77.38,42.75a21,21,0,0,0-3.26,5A24.93,24.93,0,0,0,71,40.54c1.31-8.69-2.42-18-28.62-16.3,7.16,3.48,6.56,25.93,26.15,21.14-3.73-9.26-13.5-15.6-17.69-17.3,11.1,4,16.83,10,19.57,15.29h0a22.25,22.25,0,0,1,1.81,11.8C65.34,56.19,60,62.38,59.65,70H88.76c-.38-8.18-6.49-14.71-14.08-15a16.18,16.18,0,0,0,.1-3.13,20.12,20.12,0,0,1,2.74-6.68h0c3-4.16,8.6-8.45,18.47-10.39-3.75.9-12.8,5-17.15,12.32,15.92,6.56,18.3-12.46,24.79-14.47C81.74,27.89,77.39,35.25,77.38,42.75Z"/><path class="cls-1" d="M73,50.44,39.47,65.34,73,80.22l33.53-14.88ZM37,68.62v43.82l34,15.12V83.72Zm72,0L75,83.72v43.84l34-15.12Z"/><text class="cls-2" transform="translate(42.01 111.45)">E</text><text class="cls-2" transform="translate(79.01 110.45)">C</text></svg>